<svg width="16" height="16" viewBox="0 0 16 16" fill="none" xmlns="http://www.w3.org/2000/svg">
<g clip-path="url(#clip0_2_3)">
<path d="M10.8467 1.00977C11.3799 1.00977 11.8708 1.04785 12.3193 1.12402C12.7764 1.19173 13.1445 1.2679 13.4238 1.35254L12.9033 4.86914C12.4378 4.75911 11.9596 4.67871 11.4688 4.62793C10.9863 4.56868 10.5251 4.53906 10.085 4.53906C9.62793 4.53906 9.21322 4.58138 8.84082 4.66602C8.47689 4.74219 8.15104 4.86068 7.86328 5.02148C7.51628 5.20768 7.22005 5.44466 6.97461 5.73242C6.72917 6.02018 6.52604 6.35872 6.36523 6.74805V15H2.83594V1.26367H6.12402L6.26367 3.20605L6.28906 3.51074C6.84766 2.7321 7.51628 2.12272 8.29492 1.68262C9.07357 1.23405 9.92415 1.00977 10.8467 1.00977Z" fill="url(#paint0_radial_2_3)"/>
</g>
<defs>
<radialGradient id="paint0_radial_2_3" cx="0" cy="0" r="1" gradientUnits="userSpaceOnUse" gradientTransform="translate(-0.999999 -8.25197) rotate(55.5129) scale(28.2575 151.927)">
<stop stop-color="#5EEAD4"/>
<stop offset="1" stop-color="#BEF264"/>
</radialGradient>
<clipPath id="clip0_2_3">
<rect width="16" height="16" fill="white"/>
</clipPath>
</defs>
</svg>
