<svg width="16" height="16" viewBox="0 0 16 16" fill="none" xmlns="http://www.w3.org/2000/svg">
<g clip-path="url(#clip0_2_3)">
<path d="M10.3672 4.39062C10.6953 4.39062 10.9974 4.41406 11.2734 4.46094C11.5547 4.5026 11.7812 4.54948 11.9531 4.60156L11.6328 6.76562C11.3464 6.69792 11.0521 6.64844 10.75 6.61719C10.4531 6.58073 10.1693 6.5625 9.89844 6.5625C9.61719 6.5625 9.36198 6.58854 9.13281 6.64062C8.90885 6.6875 8.70833 6.76042 8.53125 6.85938C8.31771 6.97396 8.13542 7.11979 7.98438 7.29688C7.83333 7.47396 7.70833 7.68229 7.60938 7.92188V13H5.4375V4.54688H7.46094L7.54688 5.74219L7.5625 5.92969C7.90625 5.45052 8.31771 5.07552 8.79688 4.80469C9.27604 4.52865 9.79948 4.39062 10.3672 4.39062Z" fill="url(#paint0_radial_2_3)"/>
</g>
<defs>
<radialGradient id="paint0_radial_2_3" cx="0" cy="0" r="1" gradientUnits="userSpaceOnUse" gradientTransform="translate(3 -1.68504) rotate(55.1957) scale(17.52 94.5919)">
<stop stop-color="#5EEAD4"/>
<stop offset="1" stop-color="#BEF264"/>
</radialGradient>
<clipPath id="clip0_2_3">
<rect width="16" height="16" fill="white"/>
</clipPath>
</defs>
</svg>
