<svg width="400" height="100" viewBox="0 0 400 100" fill="none" xmlns="http://www.w3.org/2000/svg">
<g clip-path="url(#clip0_1_2)">
<path d="M70.0625 36.3438C72.0312 36.3438 73.8438 36.4844 75.5 36.7656C77.1875 37.0156 78.5469 37.2969 79.5781 37.6094L77.6562 50.5938C75.9375 50.1875 74.1719 49.8906 72.3594 49.7031C70.5781 49.4844 68.875 49.375 67.25 49.375C65.5625 49.375 64.0312 49.5312 62.6562 49.8438C61.3125 50.125 60.1094 50.5625 59.0469 51.1562C57.7656 51.8438 56.6719 52.7188 55.7656 53.7812C54.8594 54.8438 54.1094 56.0938 53.5156 57.5312V88H40.4844V37.2812H52.625L53.1406 44.4531L53.2344 45.5781C55.2969 42.7031 57.7656 40.4531 60.6406 38.8281C63.5156 37.1719 66.6562 36.3438 70.0625 36.3438ZM115.906 88.9375C112 88.9375 108.453 88.2969 105.266 87.0156C102.078 85.7344 99.3438 83.9844 97.0625 81.7656C94.7812 79.5781 93.0156 77 91.7656 74.0312C90.5469 71.0312 89.9375 67.8281 89.9375 64.4219V62.5469C89.9375 58.6719 90.5469 55.1406 91.7656 51.9531C92.9844 48.7344 94.6875 45.9688 96.875 43.6562C99.0625 41.3438 101.656 39.5469 104.656 38.2656C107.656 36.9844 110.922 36.3438 114.453 36.3438C118.109 36.3438 121.359 36.9531 124.203 38.1719C127.078 39.3594 129.516 41.0469 131.516 43.2344C133.484 45.4219 134.984 48.0625 136.016 51.1562C137.047 54.2188 137.562 57.6094 137.562 61.3281V66.8594H103.156V67C103.594 69.0312 104.156 70.6719 104.844 71.9219C105.531 73.1406 106.453 74.25 107.609 75.25C108.797 76.2812 110.156 77.0781 111.688 77.6406C113.219 78.2031 114.891 78.4844 116.703 78.4844C119.266 78.4844 121.75 78 124.156 77.0312C126.562 76.0625 128.516 74.6094 130.016 72.6719L136.531 79.7031C134.875 82.0469 132.25 84.1719 128.656 86.0781C125.062 87.9844 120.812 88.9375 115.906 88.9375ZM114.359 46.8906C112.891 46.8906 111.547 47.1562 110.328 47.6875C109.109 48.1875 108.047 48.9219 107.141 49.8906C106.203 50.8594 105.422 52.0156 104.797 53.3594C104.172 54.7031 103.703 56.2031 103.391 57.8594H124.766V56.8281C124.766 55.4531 124.516 54.1562 124.016 52.9375C123.516 51.7188 122.828 50.6562 121.953 49.75C121.078 48.875 120 48.1875 118.719 47.6875C117.469 47.1562 116.016 46.8906 114.359 46.8906ZM171.406 78.5312C172.688 78.5312 173.906 78.3438 175.062 77.9688C176.219 77.5938 177.234 77.0625 178.109 76.375C178.984 75.6875 179.656 74.8594 180.125 73.8906C180.625 72.9219 180.844 71.8438 180.781 70.6562H193.062C193.125 73.2812 192.578 75.7188 191.422 77.9688C190.297 80.2188 188.75 82.1562 186.781 83.7812C184.812 85.4062 182.516 86.6875 179.891 87.625C177.297 88.5312 174.547 88.9844 171.641 88.9844C167.703 88.9844 164.25 88.3281 161.281 87.0156C158.312 85.6719 155.844 83.8438 153.875 81.5312C151.875 79.2188 150.359 76.5156 149.328 73.4219C148.328 70.2969 147.828 66.9531 147.828 63.3906V61.9844C147.828 58.4219 148.328 55.0938 149.328 52C150.328 48.875 151.828 46.1562 153.828 43.8438C155.828 41.5312 158.297 39.7031 161.234 38.3594C164.203 37.0156 167.641 36.3438 171.547 36.3438C174.672 36.3438 177.562 36.8125 180.219 37.75C182.875 38.6875 185.172 40 187.109 41.6875C189.016 43.4062 190.5 45.4844 191.562 47.9219C192.625 50.3281 193.125 53.0312 193.062 56.0312H180.781C180.844 54.7812 180.656 53.5938 180.219 52.4688C179.781 51.3438 179.141 50.375 178.297 49.5625C177.453 48.75 176.438 48.1094 175.25 47.6406C174.062 47.1406 172.766 46.8906 171.359 46.8906C169.297 46.8906 167.594 47.3125 166.25 48.1562C164.906 49 163.844 50.125 163.062 51.5312C162.25 52.9375 161.672 54.5469 161.328 56.3594C161.016 58.1719 160.859 60.0469 160.859 61.9844V63.3906C160.859 65.3594 161.016 67.2656 161.328 69.1094C161.641 70.9219 162.203 72.5156 163.016 73.8906C163.797 75.2969 164.859 76.4219 166.203 77.2656C167.578 78.1094 169.312 78.5312 171.406 78.5312ZM239.703 88L238.953 80.875C237.234 83.4062 235.156 85.3906 232.719 86.8281C230.312 88.2656 227.672 88.9844 224.797 88.9844C222.172 88.9844 219.766 88.5781 217.578 87.7656C215.391 86.9531 213.516 85.6562 211.953 83.875C210.391 82.125 209.172 79.8906 208.297 77.1719C207.453 74.4219 207.031 71.125 207.031 67.2812V37.2812H220.062V67.375C220.062 69.4375 220.203 71.1719 220.484 72.5781C220.797 73.9844 221.281 75.1094 221.938 75.9531C222.594 76.8281 223.453 77.4531 224.516 77.8281C225.578 78.2031 226.875 78.3906 228.406 78.3906C229.781 78.3906 231.016 78.25 232.109 77.9688C233.234 77.6875 234.219 77.2812 235.062 76.75C235.781 76.2812 236.422 75.7188 236.984 75.0625C237.547 74.4062 238.031 73.6719 238.438 72.8594V37.2812H251.516V88H239.703ZM300.688 36.3438C302.656 36.3438 304.469 36.4844 306.125 36.7656C307.812 37.0156 309.172 37.2969 310.203 37.6094L308.281 50.5938C306.562 50.1875 304.797 49.8906 302.984 49.7031C301.203 49.4844 299.5 49.375 297.875 49.375C296.188 49.375 294.656 49.5312 293.281 49.8438C291.938 50.125 290.734 50.5625 289.672 51.1562C288.391 51.8438 287.297 52.7188 286.391 53.7812C285.484 54.8438 284.734 56.0938 284.141 57.5312V88H271.109V37.2812H283.25L283.766 44.4531L283.859 45.5781C285.922 42.7031 288.391 40.4531 291.266 38.8281C294.141 37.1719 297.281 36.3438 300.688 36.3438ZM367.625 63.1562C367.625 65.5938 367.453 67.9062 367.109 70.0938C366.766 72.25 366.266 74.25 365.609 76.0938C364.891 78.125 363.938 79.9688 362.75 81.625C361.594 83.2812 360.219 84.6562 358.625 85.75C357.188 86.7812 355.562 87.5625 353.75 88.0938C351.969 88.6562 350 88.9375 347.844 88.9375C345.875 88.9375 344.078 88.6875 342.453 88.1875C340.859 87.7188 339.422 87.0156 338.141 86.0781C337.453 85.6094 336.812 85.0938 336.219 84.5312C335.625 83.9375 335.062 83.2969 334.531 82.6094L333.922 88H322.203V16H335.234V41.875C335.859 41.1562 336.531 40.5 337.25 39.9062C337.969 39.2812 338.734 38.75 339.547 38.3125C340.703 37.6562 341.953 37.1719 343.297 36.8594C344.672 36.5156 346.156 36.3438 347.75 36.3438C349.938 36.3438 351.938 36.625 353.75 37.1875C355.594 37.75 357.234 38.5625 358.672 39.625C359.828 40.4375 360.875 41.4219 361.812 42.5781C362.75 43.7031 363.578 44.9375 364.297 46.2812C365.422 48.4375 366.25 50.8594 366.781 53.5469C367.344 56.2344 367.625 59.1094 367.625 62.1719V63.1562ZM354.594 62.1719C354.594 60.8281 354.531 59.5312 354.406 58.2812C354.281 57.0312 354.078 55.8594 353.797 54.7656C353.453 53.4844 353 52.3438 352.438 51.3438C351.906 50.3125 351.094 49.375 350 48.5312C349.281 48 348.469 47.6094 347.562 47.3594C346.656 47.0781 345.625 46.9375 344.469 46.9375C342.906 46.9375 341.531 47.1562 340.344 47.5938C339.156 48.0312 338.141 48.6719 337.297 49.5156C336.891 49.9219 336.516 50.3906 336.172 50.9219C335.828 51.4219 335.516 51.9688 335.234 52.5625V72.7656C335.609 73.5469 336.031 74.2656 336.5 74.9219C337 75.5469 337.578 76.0938 338.234 76.5625C339.016 77.1562 339.922 77.6094 340.953 77.9219C342.016 78.2344 343.219 78.3906 344.562 78.3906C345.719 78.3906 346.766 78.25 347.703 77.9688C348.641 77.6875 349.453 77.2969 350.141 76.7969C351.109 76.1094 351.891 75.2188 352.484 74.125C353.109 73 353.578 71.7344 353.891 70.3281C354.141 69.2969 354.312 68.1719 354.406 66.9531C354.531 65.7344 354.594 64.4688 354.594 63.1562V62.1719Z" fill="url(#paint0_radial_1_2)"/>
</g>
<defs>
<radialGradient id="paint0_radial_1_2" cx="0" cy="0" r="1" gradientUnits="userSpaceOnUse" gradientTransform="translate(27 0.999997) rotate(14.1141) scale(356.77 971.988)">
<stop stop-color="#5EEAD4"/>
<stop offset="1" stop-color="#BEF264"/>
</radialGradient>
<clipPath id="clip0_1_2">
<rect width="400" height="100" fill="white"/>
</clipPath>
</defs>
</svg>
